<svg width="21" height="21" viewBox="0 0 21 21" fill="none" xmlns="http://www.w3.org/2000/svg">
    <path d="M18.4611 3.83334C18.3854 3.82553 18.3091 3.82553 18.2334 3.83334H2.67781C2.57811 3.83487 2.47907 3.84982 2.38336 3.87778L10.4111 11.8722L18.4611 3.83334Z" fill="white"/>
    <path d="M19.2833 4.60556L11.1944 12.6611C10.9862 12.8681 10.7046 12.9842 10.4111 12.9842C10.1176 12.9842 9.83594 12.8681 9.62776 12.6611L1.61109 4.66667C1.58645 4.75725 1.57338 4.85059 1.5722 4.94445V16.0556C1.5722 16.3502 1.68927 16.6329 1.89764 16.8412C2.10602 17.0496 2.38863 17.1667 2.68332 17.1667H18.2389C18.5336 17.1667 18.8162 17.0496 19.0245 16.8412C19.2329 16.6329 19.35 16.3502 19.35 16.0556V4.94445C19.3456 4.8287 19.3231 4.71436 19.2833 4.60556ZM3.44443 16.0556H2.6722V15.2611L6.71109 11.2556L7.49443 12.0389L3.44443 16.0556ZM18.2278 16.0556H17.45L13.4 12.0389L14.1833 11.2556L18.2222 15.2611L18.2278 16.0556Z" fill="white"/>
    </svg>
    